<svg width="17" height="15" viewBox="0 0 17 15" fill="none" xmlns="http://www.w3.org/2000/svg">
  <path d="M8.1225 1.06066C4.605 1.06066 1.5675 3.11566 0.135 6.08566C-0.045 6.46066 -0.045 6.91066 0.135 7.28566C1.5675 10.2557 4.605 12.3107 8.1225 12.3107C11.64 12.3107 14.6775 10.2557 16.11 7.28566C16.29 6.91066 16.29 6.46066 16.11 6.08566C14.6775 3.11566 11.64 1.06066 8.1225 1.06066ZM8.1225 10.0607C6.2625 10.0607 4.7475 8.54566 4.7475 6.68566C4.7475 4.82566 6.2625 3.31066 8.1225 3.31066C9.9825 3.31066 11.4975 4.82566 11.4975 6.68566C11.4975 8.54566 9.9825 10.0607 8.1225 10.0607Z" fill="#8047F8"/>
  <path d="M8.1225 8.71066C9.24088 8.71066 10.1475 7.80404 10.1475 6.68566C10.1475 5.56728 9.24088 4.66066 8.1225 4.66066C7.00413 4.66066 6.0975 5.56728 6.0975 6.68566C6.0975 7.80404 7.00413 8.71066 8.1225 8.71066Z" fill="#8047F8"/>
  <rect x="1" y="1.06066" width="1.5" height="18.5008" transform="rotate(-45 1 1.06066)" fill="#8047F8"/>
  </svg>
  