<?xml version="1.0" standalone="no"?>
<!DOCTYPE svg PUBLIC "-//W3C//DTD SVG 20010904//EN"
 "http://www.w3.org/TR/2001/REC-SVG-20010904/DTD/svg10.dtd">
<svg version="1.0" xmlns="http://www.w3.org/2000/svg"
 width="1050.000000pt" height="708.000000pt" viewBox="0 0 1050.000000 708.000000"
 preserveAspectRatio="xMidYMid meet">

<g transform="translate(0.000000,708.000000) scale(0.100000,-0.100000)"
fill="#000000" stroke="none">
<path d="M2181 6588 c-168 -26 -323 -171 -365 -344 -15 -62 -15 -30 -32 -3832
-4 -777 -10 -1415 -15 -1417 -16 -10 -23 66 -24 240 0 188 -3 203 -48 253 -25
27 -77 30 -100 4 -10 -10 -17 -33 -17 -51 0 -43 -16 -71 -42 -71 -32 0 -78 57
-137 170 -56 107 -114 181 -162 206 -57 29 -138 13 -176 -36 -18 -23 -15 -91
5 -132 28 -55 105 -140 183 -203 41 -33 69 -63 69 -75 0 -32 -45 -58 -117 -66
-68 -7 -103 -28 -103 -61 0 -58 112 -147 264 -210 89 -37 126 -70 126 -112 0
-61 -67 -80 -150 -42 -27 12 -66 21 -97 21 -45 0 -54 -4 -77 -31 -54 -64 -25
-151 86 -259 91 -88 174 -143 265 -175 124 -43 230 -52 330 -28 17 4 22 0 26
-19 4 -23 4 -23 6 2 1 17 13 33 36 48 l36 23 34 -27 c19 -14 67 -39 106 -55
l71 -29 1142 -6 1141 -6 82 31 c139 54 207 112 271 230 l28 50 37 -49 c41 -54
134 -136 201 -175 24 -14 83 -39 132 -55 159 -54 305 -38 478 52 86 45 211
173 254 261 l33 67 94 0 c135 0 258 43 324 114 14 14 28 26 33 26 5 0 30 -22
56 -48 54 -55 133 -97 212 -112 33 -6 290 -11 655 -12 519 -1 614 1 705 16
230 37 336 81 445 187 73 70 122 99 130 76 2 -6 5 -46 8 -87 5 -97 44 -205
102 -292 79 -115 190 -198 323 -242 65 -22 95 -26 190 -26 189 0 312 50 443
180 191 190 239 464 123 711 -20 43 -43 84 -51 90 -22 19 -15 28 30 40 23 7
46 16 50 19 10 9 -61 154 -114 232 -104 152 -312 270 -509 287 l-75 6 -6 75
c-7 79 -35 175 -75 250 -22 42 -88 132 -286 393 -43 56 -98 129 -123 162 -25
33 -80 105 -122 159 -70 93 -143 203 -143 217 0 4 27 17 61 29 59 22 60 24 55
54 -2 17 -10 129 -17 249 l-13 217 -56 0 c-46 0 -65 -6 -106 -32 -27 -17 -89
-55 -137 -85 -111 -67 -110 -70 -92 152 6 72 4 84 -18 125 -29 55 -64 71 -101
47 -102 -67 -76 -327 32 -327 31 0 42 -14 42 -53 0 -15 -14 -30 -44 -49 -25
-15 -52 -41 -61 -57 -15 -31 -15 -31 10 -31 35 0 85 -23 118 -54 22 -22 27
-35 27 -76 0 -64 -25 -70 -33 -9 -3 23 -11 45 -18 50 -19 11 -22 4 -11 -18 6
-11 12 -41 14 -69 3 -45 1 -49 -19 -49 -34 0 -36 -10 -12 -56 12 -24 37 -107
55 -184 18 -77 62 -247 98 -378 183 -664 219 -1025 126 -1243 -16 -36 -22 -41
-44 -37 -44 9 -61 53 -20 53 9 0 14 10 14 28 0 16 -34 336 -75 713 -66 594
-79 691 -99 734 -31 69 -65 106 -128 140 l-53 30 -175 0 c-96 0 -263 -2 -370
-5 l-195 -5 -19 173 c-11 94 -17 174 -14 177 3 3 136 -9 296 -27 160 -17 294
-29 298 -26 3 4 11 43 16 88 l11 81 51 -7 c105 -16 100 -18 110 64 4 40 6 75
3 78 -2 3 -137 46 -298 97 l-294 93 -112 154 c-62 85 -139 193 -171 240 -52
76 -128 150 -153 150 -5 0 -9 -11 -9 -24 0 -55 -81 -126 -143 -126 -64 0 -153
66 -164 123 -3 15 -10 30 -15 33 -14 9 -159 -74 -200 -113 -90 -87 -89 -125 8
-618 l36 -180 -7 -260 c-11 -392 -10 -422 14 -489 11 -32 32 -73 46 -91 14
-19 25 -36 25 -39 0 -3 -19 -6 -42 -6 -106 0 -195 -62 -220 -153 l-12 -47 -77
0 -77 0 39 39 39 39 0 454 c0 447 0 456 -21 482 -46 58 -21 56 -723 56 -504 0
-645 3 -649 13 -4 8 -6 7 -6 -3 -1 -8 -16 -22 -34 -31 -67 -32 -67 -35 -67
-514 0 -489 -1 -483 77 -520 l42 -20 1 -158 0 -157 -36 -54 c-37 -56 -94 -203
-94 -243 0 -19 -5 -23 -34 -23 -33 0 -34 -1 -38 -50 -3 -28 -3 -62 0 -76 7
-37 57 -82 102 -91 l39 -8 -105 -165 c-57 -91 -103 -174 -102 -184 2 -10 16
-28 31 -40 l28 -21 44 24 c24 13 69 50 100 82 31 33 59 59 62 59 13 0 -7 -397
-22 -441 -26 -76 -83 -140 -159 -179 l-69 -35 -326 -3 c-179 -1 -697 1 -1151
5 l-825 8 -56 26 c-68 32 -120 82 -157 152 l-27 52 4 1970 c2 1084 6 2305 10
2715 l7 745 22 46 c34 68 82 121 143 154 l54 30 328 3 328 3 29 -30 c28 -27
30 -35 30 -103 0 -85 22 -133 67 -145 15 -4 220 -7 455 -8 l427 0 27 27 c24
23 28 37 34 112 12 148 20 151 340 143 282 -7 312 -14 389 -83 54 -48 86 -94
103 -146 8 -23 10 -407 9 -1318 -3 -1176 -4 -1287 -20 -1305 -15 -18 -15 -19
1 -6 10 7 46 14 85 15 l68 1 6 1305 c4 1025 2 1318 -7 1368 -26 129 -125 260
-238 315 -113 55 -101 55 -1291 59 -605 2 -1124 0 -1154 -4z m5209 -4173 c0
-2 -52 -118 -116 -257 -321 -701 -307 -668 -287 -683 17 -13 16 -16 -20 -52
-44 -44 -50 -40 -68 47 -14 66 -5 162 22 244 30 90 102 234 148 295 41 54 41
55 41 143 0 70 4 97 21 129 14 27 19 55 17 83 l-3 41 65 6 c90 8 180 10 180 4z
m-2285 -210 l0 -39 -64 -22 c-35 -12 -90 -36 -122 -52 l-59 -31 0 95 0 95 123
-3 122 -3 0 -40z m2699 -467 c38 -222 73 -429 78 -460 8 -46 14 -58 28 -58 14
0 20 -11 25 -42 13 -86 17 -98 32 -98 9 0 130 14 270 31 201 24 257 28 269 18
8 -6 13 -13 11 -15 -5 -5 -521 -84 -547 -84 -15 0 -20 7 -20 25 l0 25 -367 2
-368 3 -20 102 c-18 87 -19 106 -8 128 16 30 17 30 60 4 19 -12 35 -20 37 -18
3 5 315 595 391 741 27 54 53 98 56 98 3 0 36 -181 73 -402z m-1669 218 c74
-19 132 -52 192 -109 71 -67 108 -143 108 -224 0 -34 -5 -67 -11 -73 -7 -7
-10 8 -10 52 1 77 -32 155 -93 220 -63 69 -135 100 -321 137 l-45 9 65 1 c36
0 88 -5 115 -13z m905 -571 c17 -20 5 -45 -20 -45 -11 0 -23 7 -26 15 -6 15
11 45 26 45 4 0 13 -7 20 -15z m-2142 -74 l-33 -36 -3 28 c-4 37 12 55 43 49
l25 -4 -32 -37z m2113 -92 c57 -78 111 -150 119 -161 15 -19 21 -19 100 -10
81 10 110 5 110 -18 0 -4 -46 -15 -102 -24 l-103 -17 -32 38 c-18 21 -33 41
-33 46 0 4 -7 7 -16 7 -8 0 -24 19 -34 43 -11 24 -49 81 -84 127 -49 63 -62
88 -54 97 6 7 14 13 18 13 4 0 54 -64 111 -141z m-1556 51 l200 -29 48 -51
c26 -28 47 -55 47 -59 0 -4 -48 -11 -107 -14 -93 -5 -109 -4 -132 12 -119 85
-312 27 -377 -113 -96 -206 94 -435 308 -372 30 9 67 25 82 37 25 19 34 20
131 14 l105 -7 -18 -30 c-24 -42 -111 -122 -158 -146 -78 -40 -152 -55 -241
-49 -206 12 -371 163 -405 370 -22 131 26 278 121 376 56 57 135 101 171 95
14 -2 115 -18 225 -34z m2595 -59 c0 -26 -17 -36 -35 -21 -18 15 -8 40 16 40
12 0 19 -7 19 -19z m1573 -89 c87 -161 72 -362 -37 -495 -23 -29 -61 -66 -84
-84 -127 -97 -340 -109 -481 -26 -132 77 -222 235 -220 383 2 99 3 101 113
133 53 16 99 27 101 25 3 -2 -5 -24 -17 -48 -27 -54 -29 -156 -4 -212 43 -98
140 -162 246 -161 77 0 122 17 180 69 64 58 84 105 85 194 0 65 -4 82 -31 130
-20 37 -47 66 -80 88 -27 19 -50 37 -52 41 -1 4 42 21 95 37 l98 31 31 -30
c18 -16 43 -50 57 -75z"/>
<path d="M3024 5690 c-47 -19 -76 -98 -53 -141 21 -41 92 -130 100 -127 17 7
98 122 104 148 18 82 -71 152 -151 120z m86 -60 c24 -24 25 -38 4 -68 -36 -51
-117 -8 -95 51 16 41 59 49 91 17z"/>
<path d="M3030 5330 c-11 -11 -20 -26 -20 -34 0 -7 9 -25 20 -39 18 -23 20
-40 20 -204 0 -99 -2 -182 -4 -184 -2 -2 -95 2 -207 10 -189 13 -203 13 -214
-3 -7 -9 -11 -33 -9 -54 6 -50 44 -797 44 -859 0 -44 -3 -50 -28 -59 -29 -11
-62 -65 -62 -101 0 -32 39 -84 74 -98 l33 -14 7 -138 c9 -172 43 -846 52
-1010 3 -67 11 -129 17 -137 7 -8 224 -122 482 -252 l470 -237 335 15 c184 9
339 14 343 11 5 -3 7 -59 6 -124 -3 -123 3 -145 35 -133 14 6 17 14 13 43 -4
20 -9 82 -13 139 -4 56 -11 105 -16 108 -5 3 -161 -2 -347 -11 l-338 -18 -209
105 c-115 58 -327 164 -471 236 -210 105 -264 137 -268 154 -2 13 -9 120 -15
238 -6 118 -15 289 -20 380 -35 652 -34 633 -15 645 44 25 65 57 65 102 0 45
-15 67 -78 113 -19 14 -21 32 -31 250 -6 129 -16 335 -23 458 -6 123 -8 225
-5 228 2 3 96 -2 207 -11 114 -10 206 -13 211 -8 4 4 9 95 9 200 1 174 3 195
21 217 10 13 19 31 19 40 0 20 -35 56 -55 56 -8 0 -24 -9 -35 -20z m-287
-1467 c24 -23 23 -87 -3 -113 -31 -31 -93 -27 -119 6 -63 81 45 175 122 107z"/>
<path d="M6642 5016 c-82 -27 -150 -101 -167 -184 -10 -48 15 -162 38 -176 10
-6 25 -26 33 -44 9 -23 19 -32 31 -30 20 4 22 31 9 139 l-7 66 46 30 c45 29
48 30 77 16 23 -12 35 -13 54 -4 19 8 31 8 46 0 14 -7 28 -8 42 -1 11 5 36 7
53 5 25 -4 34 -1 39 12 5 12 9 13 14 4 18 -27 150 83 150 125 0 20 -39 46 -70
46 -14 0 -53 -9 -88 -20 l-62 -20 -42 22 c-51 27 -137 33 -196 14z"/>
<path d="M6681 4799 c-35 -14 -20 -21 28 -13 29 5 38 10 29 15 -16 11 -26 10
-57 -2z"/>
<path d="M6872 4791 c-10 -6 -6 -10 15 -14 33 -6 44 0 23 13 -18 12 -22 12
-38 1z"/>
<path d="M6690 4730 c-11 -7 -6 -10 20 -10 26 0 31 3 20 10 -8 5 -17 10 -20
10 -3 0 -12 -5 -20 -10z"/>
<path d="M6870 4733 c0 -5 11 -8 24 -8 13 0 22 3 19 8 -2 4 -13 7 -24 7 -10 0
-19 -3 -19 -7z"/>
<path d="M6710 4685 c0 -10 7 -15 18 -13 21 4 19 22 -2 26 -10 2 -16 -3 -16
-13z"/>
<path d="M6890 4685 c0 -8 7 -15 15 -15 8 0 15 7 15 15 0 8 -7 15 -15 15 -8 0
-15 -7 -15 -15z"/>
<path d="M6837 4640 c4 -14 7 -33 7 -42 0 -10 4 -18 8 -18 12 0 9 21 -7 55
-12 24 -13 25 -8 5z"/>
<path d="M6750 4554 c0 -15 33 -44 51 -44 9 0 7 5 -6 12 -11 6 -25 19 -32 27
-7 9 -13 11 -13 5z"/>
<path d="M7818 3200 c-46 -25 -61 -50 -49 -83 17 -43 57 -48 132 -16 45 20 49
24 49 55 0 28 -5 36 -25 44 -51 19 -71 19 -107 0z"/>
<path d="M3866 1149 l-26 -20 0 -183 c0 -162 2 -185 18 -198 9 -9 26 -18 37
-20 14 -2 21 -12 23 -36 l3 -33 40 35 39 36 164 0 c211 0 196 -17 196 221 l0
178 -26 20 c-25 20 -39 21 -234 21 -195 0 -209 -1 -234 -21z m304 -119 c0 -16
7 -20 34 -20 45 0 81 -46 88 -112 l6 -48 -37 -1 c-20 -1 -79 -2 -131 -4 -52
-1 -102 -3 -110 -4 -8 0 -31 2 -50 5 l-36 6 3 91 c1 51 3 95 3 100 0 4 52 7
115 7 108 0 115 -1 115 -20z"/>
<path d="M4190 965 c0 -21 5 -25 30 -25 34 0 38 10 12 33 -26 24 -42 21 -42
-8z"/>
<path d="M2162 1063 c-44 -22 -65 -55 -66 -107 -3 -111 121 -164 205 -88 63
56 43 165 -36 198 -44 18 -62 17 -103 -3z m138 -50 c0 -3 -7 -15 -17 -25 -15
-17 -15 -19 0 -36 23 -25 13 -32 -51 -32 -47 0 -55 -3 -60 -22 -5 -21 -6 -21
-13 -2 -10 24 -11 108 -2 117 8 9 143 9 143 0z"/>
<path d="M2180 970 c0 -28 2 -30 41 -30 36 0 40 2 29 15 -10 12 -10 18 0 30
11 13 7 15 -29 15 -39 0 -41 -2 -41 -30z"/>
<path d="M2530 1047 c0 -14 4 -28 8 -31 9 -5 8 41 -1 51 -4 3 -7 -5 -7 -20z"/>
<path d="M2622 1045 c0 -16 2 -22 5 -12 2 9 2 23 0 30 -3 6 -5 -1 -5 -18z"/>
<path d="M2800 1047 c0 -14 4 -28 8 -31 9 -5 8 41 -1 51 -4 3 -7 -5 -7 -20z"/>
<path d="M2475 1050 c-4 -6 -4 -14 -1 -17 3 -4 6 -1 6 5 0 15 26 16 33 2 3 -6
4 -5 3 2 -3 17 -32 22 -41 8z"/>
<path d="M2578 1053 c6 -2 12 -14 12 -26 0 -16 3 -18 11 -10 16 16 4 43 -18
42 -11 0 -13 -3 -5 -6z"/>
<path d="M2676 1052 c-2 -4 4 -8 15 -8 10 0 19 4 19 8 0 4 -6 8 -14 8 -8 0
-17 -4 -20 -8z"/>
<path d="M2755 1051 c-3 -6 5 -15 17 -21 21 -10 22 -10 5 3 -14 11 -15 16 -5
20 9 4 9 6 1 6 -6 1 -14 -3 -18 -8z"/>
<path d="M2848 1053 c6 -2 12 -14 12 -24 0 -11 4 -18 9 -15 15 9 0 46 -18 45
-10 0 -11 -2 -3 -6z"/>
<path d="M2890 1051 c0 -5 9 -7 20 -4 11 3 20 7 20 9 0 2 -9 4 -20 4 -11 0
-20 -4 -20 -9z"/>
<path d="M2956 1051 c-4 -5 3 -7 14 -4 23 6 26 13 6 13 -8 0 -17 -4 -20 -9z"/>
<path d="M3003 1044 c-3 -8 -1 -20 5 -26 8 -8 9 -5 5 11 -6 22 12 30 20 9 3
-8 6 -6 6 5 1 21 -27 23 -36 1z"/>
<path d="M2441 1034 c0 -11 3 -14 6 -6 3 7 2 16 -1 19 -3 4 -6 -2 -5 -13z"/>
<path d="M2731 1034 c0 -11 3 -14 6 -6 3 7 2 16 -1 19 -3 4 -6 -2 -5 -13z"/>
<path d="M2565 1031 c-3 -5 -1 -12 5 -16 5 -3 10 1 10 9 0 18 -6 21 -15 7z"/>
<path d="M2685 926 c-32 -32 -34 -87 -5 -116 25 -25 51 -25 81 -1 19 15 23 28
23 61 -2 44 -15 64 -51 75 -17 4 -29 -1 -48 -19z m53 -18 c22 -22 12 -88 -14
-88 -24 0 -39 46 -26 75 13 28 22 31 40 13z"/>
<path d="M2840 937 c-69 -35 -32 -162 42 -144 49 13 63 92 23 132 -28 29 -31
29 -65 12z m52 -42 c15 -32 -4 -78 -30 -73 -33 6 -24 98 9 98 5 0 15 -11 21
-25z"/>
<path d="M2430 930 c0 -5 7 -10 15 -10 10 0 15 -16 17 -62 2 -48 7 -63 18 -63
12 0 16 16 18 73 l3 72 -36 0 c-19 0 -35 -4 -35 -10z"/>
<path d="M2570 931 c0 -5 7 -11 15 -15 11 -4 15 -21 15 -66 0 -47 3 -60 15
-60 12 0 15 15 15 75 l0 75 -30 0 c-16 0 -30 -4 -30 -9z"/>
<path d="M3014 895 c-3 -7 -4 -32 -2 -56 4 -58 32 -62 36 -6 6 69 52 59 52
-11 0 -47 24 -36 28 12 6 68 52 57 52 -12 0 -48 24 -36 28 14 4 63 -6 69 -103
70 -61 1 -88 -3 -91 -11z"/>
<path d="M2527 822 c-7 -10 4 -62 13 -62 8 0 20 34 20 58 0 13 -26 17 -33 4z"/>
</g>
</svg>
