<svg width="67" height="19" viewBox="0 0 67 19" fill="none" xmlns="http://www.w3.org/2000/svg">
  <g clip-path="url(#clip0_406_112)">
  <path d="M8.24987 15.125C8.04426 15.125 7.83855 15.0465 7.68185 14.8896L2.86042 10.0681C2.54653 9.75425 2.54653 9.24574 2.86042 8.93185L7.68185 4.11042C7.99574 3.79653 8.50425 3.79653 8.81815 4.11042C9.13204 4.42432 9.13204 4.93283 8.81815 5.24672L4.56475 9.5L8.81865 13.7539C9.13255 14.0678 9.13255 14.5763 8.81865 14.8902C8.6617 15.0472 8.45579 15.125 8.24987 15.125Z" fill="#8047F8"/>
  </g>
  <path d="M24.284 13.096C24.068 13.096 23.888 13.048 23.744 12.952C23.608 12.848 23.496 12.696 23.408 12.496L20.276 5.464C20.188 5.264 20.164 5.088 20.204 4.936C20.244 4.784 20.328 4.664 20.456 4.576C20.584 4.488 20.736 4.444 20.912 4.444C21.144 4.444 21.316 4.496 21.428 4.6C21.548 4.696 21.648 4.844 21.728 5.044L24.572 11.632H24.056L26.888 5.032C26.976 4.84 27.08 4.696 27.2 4.6C27.32 4.496 27.488 4.444 27.704 4.444C27.88 4.444 28.024 4.488 28.136 4.576C28.256 4.664 28.332 4.784 28.364 4.936C28.396 5.088 28.368 5.264 28.28 5.464L25.148 12.496C25.06 12.696 24.948 12.848 24.812 12.952C24.684 13.048 24.508 13.096 24.284 13.096ZM33.0598 13.12C32.2438 13.12 31.5278 12.94 30.9118 12.58C30.3038 12.22 29.8318 11.716 29.4958 11.068C29.1598 10.412 28.9918 9.644 28.9918 8.764C28.9918 8.1 29.0878 7.504 29.2798 6.976C29.4718 6.44 29.7438 5.984 30.0958 5.608C30.4558 5.224 30.8838 4.932 31.3798 4.732C31.8838 4.524 32.4438 4.42 33.0598 4.42C33.8838 4.42 34.5998 4.6 35.2078 4.96C35.8158 5.312 36.2878 5.812 36.6238 6.46C36.9598 7.108 37.1278 7.872 37.1278 8.752C37.1278 9.416 37.0318 10.016 36.8398 10.552C36.6478 11.088 36.3718 11.548 36.0118 11.932C35.6598 12.316 35.2318 12.612 34.7278 12.82C34.2318 13.02 33.6758 13.12 33.0598 13.12ZM33.0598 11.8C33.5798 11.8 34.0198 11.68 34.3798 11.44C34.7478 11.2 35.0278 10.852 35.2198 10.396C35.4198 9.94 35.5198 9.396 35.5198 8.764C35.5198 7.804 35.3038 7.06 34.8718 6.532C34.4478 6.004 33.8438 5.74 33.0598 5.74C32.5478 5.74 32.1078 5.86 31.7398 6.1C31.3718 6.332 31.0878 6.676 30.8878 7.132C30.6958 7.58 30.5998 8.124 30.5998 8.764C30.5998 9.716 30.8158 10.46 31.2478 10.996C31.6798 11.532 32.2838 11.8 33.0598 11.8ZM39.4696 13C39.2216 13 39.0296 12.932 38.8936 12.796C38.7576 12.652 38.6896 12.456 38.6896 12.208V5.284C38.6896 5.028 38.7536 4.836 38.8816 4.708C39.0176 4.572 39.2096 4.504 39.4576 4.504C39.7056 4.504 39.8936 4.572 40.0216 4.708C40.1576 4.836 40.2256 5.028 40.2256 5.284V11.692H43.7056C43.9216 11.692 44.0856 11.748 44.1976 11.86C44.3176 11.972 44.3776 12.132 44.3776 12.34C44.3776 12.548 44.3176 12.712 44.1976 12.832C44.0856 12.944 43.9216 13 43.7056 13H39.4696ZM46.6773 13.096C46.4293 13.096 46.2373 13.028 46.1013 12.892C45.9733 12.748 45.9093 12.552 45.9093 12.304V5.824H43.5693C43.3613 5.824 43.1973 5.768 43.0773 5.656C42.9653 5.536 42.9093 5.376 42.9093 5.176C42.9093 4.968 42.9653 4.812 43.0773 4.708C43.1973 4.596 43.3613 4.54 43.5693 4.54H49.7853C49.9933 4.54 50.1533 4.596 50.2653 4.708C50.3853 4.812 50.4453 4.968 50.4453 5.176C50.4453 5.376 50.3853 5.536 50.2653 5.656C50.1533 5.768 49.9933 5.824 49.7853 5.824H47.4453V12.304C47.4453 12.552 47.3813 12.748 47.2533 12.892C47.1253 13.028 46.9333 13.096 46.6773 13.096ZM50.4689 13.096C50.2769 13.096 50.1209 13.052 50.0009 12.964C49.8889 12.876 49.8209 12.76 49.7969 12.616C49.7729 12.464 49.8009 12.296 49.8809 12.112L53.0489 5.092C53.1529 4.86 53.2769 4.696 53.4209 4.6C53.5729 4.496 53.7449 4.444 53.9369 4.444C54.1209 4.444 54.2849 4.496 54.4289 4.6C54.5809 4.696 54.7089 4.86 54.8129 5.092L57.9929 12.112C58.0809 12.296 58.1129 12.464 58.0889 12.616C58.0649 12.768 57.9969 12.888 57.8849 12.976C57.7729 13.056 57.6249 13.096 57.4409 13.096C57.2169 13.096 57.0409 13.044 56.9129 12.94C56.7929 12.828 56.6849 12.66 56.5889 12.436L55.8089 10.624L56.4569 11.044H51.3929L52.0409 10.624L51.2729 12.436C51.1689 12.668 51.0609 12.836 50.9489 12.94C50.8369 13.044 50.6769 13.096 50.4689 13.096ZM53.9129 6.208L52.2329 10.204L51.9209 9.82H55.9289L55.6289 10.204L53.9369 6.208H53.9129ZM60.0826 13.096C59.8346 13.096 59.6426 13.028 59.5066 12.892C59.3786 12.748 59.3146 12.552 59.3146 12.304V5.32C59.3146 5.064 59.3826 4.872 59.5186 4.744C59.6546 4.608 59.8466 4.54 60.0946 4.54H62.9866C63.9146 4.54 64.6306 4.764 65.1346 5.212C65.6386 5.652 65.8906 6.272 65.8906 7.072C65.8906 7.592 65.7746 8.04 65.5426 8.416C65.3186 8.792 64.9906 9.08 64.5586 9.28C64.1266 9.48 63.6026 9.58 62.9866 9.58L63.0946 9.4H63.4906C63.8186 9.4 64.1026 9.48 64.3426 9.64C64.5906 9.8 64.8066 10.052 64.9906 10.396L65.8906 12.064C65.9866 12.232 66.0306 12.396 66.0226 12.556C66.0146 12.716 65.9546 12.848 65.8426 12.952C65.7306 13.048 65.5666 13.096 65.3506 13.096C65.1346 13.096 64.9586 13.052 64.8226 12.964C64.6866 12.868 64.5666 12.724 64.4626 12.532L63.2506 10.3C63.1066 10.028 62.9346 9.848 62.7346 9.76C62.5426 9.664 62.2946 9.616 61.9906 9.616H60.8506V12.304C60.8506 12.552 60.7866 12.748 60.6586 12.892C60.5306 13.028 60.3386 13.096 60.0826 13.096ZM60.8506 8.476H62.7226C63.2746 8.476 63.6906 8.364 63.9706 8.14C64.2586 7.908 64.4026 7.564 64.4026 7.108C64.4026 6.66 64.2586 6.324 63.9706 6.1C63.6906 5.868 63.2746 5.752 62.7226 5.752H60.8506V8.476Z" fill="#8047F8"/>
  <defs>
  <clipPath id="clip0_406_112">
  <rect width="12" height="12" fill="white" transform="translate(0 3.5)"/>
  </clipPath>
  </defs>
  </svg>
  