<svg width="17" height="12" viewBox="0 0 17 12" fill="none" xmlns="http://www.w3.org/2000/svg">
<path d="M8.8775 0C5.36 0 2.3225 2.055 0.890005 5.025C0.710005 5.4 0.710005 5.85 0.890005 6.225C2.3225 9.195 5.36 11.25 8.8775 11.25C12.395 11.25 15.4325 9.195 16.865 6.225C17.045 5.85 17.045 5.4 16.865 5.025C15.4325 2.055 12.395 0 8.8775 0ZM8.8775 9C7.0175 9 5.5025 7.485 5.5025 5.625C5.5025 3.765 7.0175 2.25 8.8775 2.25C10.7375 2.25 12.2525 3.765 12.2525 5.625C12.2525 7.485 10.7375 9 8.8775 9Z" fill="#8047F8"/>
<path d="M8.87751 7.65C9.99589 7.65 10.9025 6.74338 10.9025 5.625C10.9025 4.50662 9.99589 3.6 8.87751 3.6C7.75913 3.6 6.85251 4.50662 6.85251 5.625C6.85251 6.74338 7.75913 7.65 8.87751 7.65Z" fill="#8047F8"/>
</svg>
