<svg width="15" height="14" viewBox="0 0 15 14" fill="none" xmlns="http://www.w3.org/2000/svg">
  <path d="M7.49823 3.50003C6.88984 3.5008 6.30659 3.74283 5.87639 4.17302C5.4462 4.60322 5.20417 5.18647 5.2034 5.79486H6.37007C6.37007 5.17245 6.8764 4.6667 7.49823 4.6667C8.12007 4.6667 8.6264 5.17245 8.6264 5.79486C8.6264 6.1437 8.34582 6.39686 7.91707 6.74336C7.777 6.85309 7.64247 6.9697 7.51398 7.09278C6.93182 7.67436 6.9149 8.29211 6.9149 8.36095V8.75003H8.08157L8.08098 8.38078C8.08157 8.37145 8.10023 8.15561 8.33823 7.9182C8.42573 7.8307 8.53598 7.7432 8.65032 7.65103C9.10473 7.28295 9.79248 6.72703 9.79248 5.79486C9.79202 5.18648 9.55017 4.60314 9.12004 4.17289C8.6899 3.74264 8.10662 3.50065 7.49823 3.50003ZM6.9149 9.33336H8.08157V10.5H6.9149V9.33336Z" fill="#8047F8"/>
  <path d="M7.49823 1.16669C4.28174 1.16669 1.6649 3.78353 1.6649 7.00003C1.6649 10.2165 4.28174 12.8334 7.49823 12.8334C10.7147 12.8334 13.3316 10.2165 13.3316 7.00003C13.3316 3.78353 10.7147 1.16669 7.49823 1.16669ZM7.49823 11.6667C4.92515 11.6667 2.83157 9.57311 2.83157 7.00003C2.83157 4.42694 4.92515 2.33336 7.49823 2.33336C10.0713 2.33336 12.1649 4.42694 12.1649 7.00003C12.1649 9.57311 10.0713 11.6667 7.49823 11.6667Z" fill="#8047F8"/>
  </svg>
  